<svg xmlns:xlink="http://www.w3.org/1999/xlink" xmlns="http://www.w3.org/2000/svg" width="18" height="18" viewBox="0 0 18 18" fill="none"><g clip-path="url(#clip0_20183_190219)" fill="none"><path d="M12.7354 2.99365C14.7984 2.99365 16.4707 4.6733 16.4707 6.74523V7.99576L17.5582 10.168C17.6655 10.3825 17.665 10.6351 17.5568 10.8492L16.4707 12.9979V14.2484C16.4707 16.3204 14.7984 18 12.7354 18H5.26471C3.20175 18 1.52937 16.3204 1.52937 14.2484V12.9979L0.419453 10.856C0.306632 10.6382 0.306121 10.3794 0.41808 10.1612L1.52937 7.99576V6.74523C1.52937 4.6733 3.20175 2.99365 5.26471 2.99365H12.7354ZM6.15794 7.19997C5.21615 7.19997 4.45268 7.96344 4.45268 8.90523V11.9368C4.45268 12.8786 5.21615 13.6421 6.15794 13.6421C7.09973 13.6421 7.86321 12.8786 7.86321 11.9368V8.90523C7.86321 7.96344 7.09973 7.19997 6.15794 7.19997ZM11.6527 7.19997C10.7109 7.19997 9.94742 7.96344 9.94742 8.90523V11.9368C9.94742 12.8786 10.7109 13.6421 11.6527 13.6421C12.5945 13.6421 13.3579 12.8786 13.3579 11.9368V8.90523C13.3579 7.96344 12.5945 7.19997 11.6527 7.19997Z" fill="#101828"></path><path d="M9.00023 4.16842C10.1513 4.16842 11.0844 3.23529 11.0844 2.08421C11.0844 0.933133 10.1513 0 9.00023 0C7.84915 0 6.91602 0.933133 6.91602 2.08421C6.91602 3.23529 7.84915 4.16842 9.00023 4.16842Z" fill="#101828"></path></g><defs><clipPath id="clip0_20183_190219"><rect width="18" height="18" fill="white"></rect></clipPath></defs></svg>