<svg xmlns:xlink="http://www.w3.org/1999/xlink" xmlns="http://www.w3.org/2000/svg" viewBox="0 0 1024 1024"   fill="currentColor" aria-hidden="true" focusable="false" role="img" width="1"  height="1" ><path d="M947.2 375.466667c0 46.933333-17.066667 89.6-51.2 123.733333l-358.4 358.4c-4.266667 4.266667-4.266667 12.8 0 17.066667l72.533333 72.533333c12.8 12.8 12.8 34.133333 0 51.2-8.533333 8.533333-17.066667 8.533333-25.6 8.533333s-17.066667-4.266667-25.6-8.533333l-72.533333-72.533333c-34.133333-34.133333-34.133333-85.333333 0-115.2l358.4-358.4c42.666667-42.666667 42.666667-106.666667 0-149.333334s-110.933333-42.666667-149.333333-4.266666l-298.666667 298.666666c-8.533333 8.533333-17.066667 8.533333-25.6 8.533334s-17.066667-4.266667-25.6-8.533334c-12.8-12.8-12.8-34.133333 0-51.2l298.666667-298.666666c21.333333-21.333333 29.866667-46.933333 29.866666-72.533334s-8.533333-55.466667-29.866666-72.533333c-38.4-38.4-110.933333-38.4-149.333334 0l-396.8 396.8c-12.8 12.8-34.133333 12.8-51.2 0s-12.8-34.133333 0-51.2l396.8-396.8c38.4-34.133333 85.333333-51.2 128-51.2s89.6 17.066667 123.733334 51.2c34.133333 34.133333 55.466667 76.8 55.466666 123.733333 0 8.533333 0 17.066667-4.266666 25.6 51.2-8.533333 106.666667 8.533333 149.333333 51.2 34.133333 34.133333 51.2 76.8 51.2 123.733334z" fill="#344054"></path><path d="M797.866667 349.866667c12.8 12.8 12.8 34.133333 0 51.2l-294.4 294.4c-34.133333 29.866667-76.8 46.933333-123.733334 46.933333S290.133333 725.333333 256 691.2c-34.133333-34.133333-51.2-76.8-51.2-123.733333s17.066667-89.6 51.2-123.733334l294.4-294.4c12.8-12.8 34.133333-12.8 51.2 0 12.8 12.8 12.8 34.133333 0 51.2l-294.4 294.4c-42.666667 42.666667-42.666667 106.666667 0 149.333334s106.666667 42.666667 149.333333 0l294.4-294.4c8.533333-12.8 34.133333-12.8 46.933334 0z" fill="#344054"></path></svg>