<svg xmlns:xlink="http://www.w3.org/1999/xlink" xmlns="http://www.w3.org/2000/svg" width="22" height="22" viewBox="0 0 22 22" fill="none"><mask id="mask0_20264_61684" maskUnits="userSpaceOnUse" x="1" y="1" width="20" height="20" style="mask-type: luminance;" fill="none"><path d="M20.1681 1.83252H1.83472V20.1659H20.1681V1.83252Z" fill="#FFFFFF"></path></mask><g mask="url(#mask0_20264_61684)" fill="none"><mask id="mask1_20264_61684" maskUnits="userSpaceOnUse" x="1" y="1" width="20" height="20" style="mask-type: alpha;" fill="none"><path fill-rule="evenodd" clip-rule="evenodd" d="M14.8311 20.0452C15.1198 20.1576 15.449 20.1504 15.7405 20.0102L19.5151 18.194C19.9116 18.0031 20.1639 17.6016 20.1639 17.1613V4.84611C20.1639 4.40574 19.9116 4.00433 19.5151 3.81348L15.7405 1.99719C15.3581 1.81314 14.9104 1.85822 14.5747 2.10228C14.5268 2.13714 14.481 2.17607 14.4383 2.21897L7.21234 8.81128L4.06488 6.4221C3.77189 6.1997 3.36206 6.21792 3.08994 6.46546L2.08045 7.38374C1.7476 7.68652 1.74722 8.21017 2.07963 8.51345L4.8092 11.0037L2.07963 13.4939C1.74722 13.7972 1.7476 14.3209 2.08045 14.6236L3.08994 15.5419C3.36206 15.7895 3.77189 15.8077 4.06488 15.5852L7.21234 13.1961L14.4383 19.7884C14.5525 19.9027 14.6867 19.9889 14.8311 20.0452ZM15.5834 6.8418L10.1006 11.0037L15.5834 15.1656V6.8418Z" fill="#FFFFFF"></path></mask><g mask="url(#mask1_20264_61684)" fill="none"><path d="M19.5175 3.81615L15.74 1.99737C15.3028 1.78684 14.7803 1.87564 14.4371 2.2188L2.07099 13.4938C1.73838 13.7971 1.73876 14.3207 2.07182 14.6235L3.08192 15.5418C3.35421 15.7893 3.76428 15.8075 4.05745 15.5851L18.9491 4.288C19.4487 3.90899 20.1662 4.26532 20.1662 4.89241V4.84856C20.1662 4.40837 19.9141 4.00711 19.5175 3.81615Z" fill="#0065A9"></path><g filter="url(#filter0_d_20264_61684)" fill="none"><path d="M19.5175 18.1889L15.74 20.0077C15.3028 20.2182 14.7803 20.1294 14.4371 19.7863L2.07099 8.51131C1.73838 8.20804 1.73876 7.68436 2.07182 7.38159L3.08192 6.46331C3.35421 6.21578 3.76428 6.19755 4.05745 6.41996L18.9491 17.7171C19.4487 18.096 20.1662 17.7397 20.1662 17.1126V17.1565C20.1662 17.5967 19.9141 17.9979 19.5175 18.1889Z" fill="#007ACC"></path></g><g filter="url(#filter1_d_20264_61684)" fill="none"><path d="M15.7406 20.0102C15.3032 20.2206 14.7807 20.1315 14.4375 19.7884C14.8603 20.2113 15.5834 19.9117 15.5834 19.3138V2.69358C15.5834 2.0956 14.8603 1.79612 14.4375 2.21896C14.7807 1.87578 15.3032 1.78685 15.7406 1.99719L19.5174 3.81349C19.9143 4.00434 20.1666 4.40574 20.1666 4.84611V17.1613C20.1666 17.6016 19.9143 18.0031 19.5174 18.194L15.7406 20.0102Z" fill="#1F9CF0"></path></g><g opacity="0.25" style="mix-blend-mode: overlay;" fill="none"><path fill-rule="evenodd" clip-rule="evenodd" d="M14.8223 20.0452C15.111 20.1576 15.4403 20.1504 15.7318 20.0102L19.5062 18.194C19.9029 18.0031 20.1551 17.6017 20.1551 17.1613V4.84611C20.1551 4.40573 19.9029 4.00433 19.5063 3.81348L15.7318 1.99719C15.3493 1.81314 14.9016 1.85823 14.5659 2.10227C14.5179 2.13713 14.4723 2.17606 14.4294 2.21896L7.20354 8.81127L4.0561 6.42211C3.76311 6.19969 3.35328 6.21792 3.08116 6.46545L2.07167 7.38373C1.73881 7.68652 1.73843 8.21018 2.07084 8.51345L4.80041 11.0037L2.07084 13.4939C1.73843 13.7972 1.73881 14.3209 2.07167 14.6236L3.08116 15.5419C3.35328 15.7895 3.76311 15.8076 4.0561 15.5852L7.20354 13.1961L14.4294 19.7884C14.5438 19.9027 14.678 19.989 14.8223 20.0452ZM15.5746 6.84181L10.0918 11.0037L15.5746 15.1656V6.84181Z" fill="url(&quot;#paint0_linear_20264_61684&quot;)"></path></g></g></g><defs><filter id="filter0_d_20264_61684" x="0.293998" y="4.73687" width="21.4" height="16.9115" filterUnits="userSpaceOnUse" color-interpolation-filters="sRGB"><feFlood flood-opacity="0" result="BackgroundImageFix"></feFlood><feColorMatrix in="SourceAlpha" type="matrix" values="0 0 0 0 0 0 0 0 0 0 0 0 0 0 0 0 0 0 127 0" result="hardAlpha"></feColorMatrix><feOffset></feOffset><feGaussianBlur stdDeviation="0.76389"></feGaussianBlur><feColorMatrix type="matrix" values="0 0 0 0 0 0 0 0 0 0 0 0 0 0 0 0 0 0 0.25 0"></feColorMatrix><feBlend mode="overlay" in2="BackgroundImageFix" result="effect1_dropShadow_20264_61684"></feBlend><feBlend mode="normal" in="SourceGraphic" in2="effect1_dropShadow_20264_61684" result="shape"></feBlend></filter><filter id="filter1_d_20264_61684" x="12.9097" y="0.356498" width="8.78481" height="21.2943" filterUnits="userSpaceOnUse" color-interpolation-filters="sRGB"><feFlood flood-opacity="0" result="BackgroundImageFix"></feFlood><feColorMatrix in="SourceAlpha" type="matrix" values="0 0 0 0 0 0 0 0 0 0 0 0 0 0 0 0 0 0 127 0" result="hardAlpha"></feColorMatrix><feOffset></feOffset><feGaussianBlur stdDeviation="0.76389"></feGaussianBlur><feColorMatrix type="matrix" values="0 0 0 0 0 0 0 0 0 0 0 0 0 0 0 0 0 0 0.25 0"></feColorMatrix><feBlend mode="overlay" in2="BackgroundImageFix" result="effect1_dropShadow_20264_61684"></feBlend><feBlend mode="normal" in="SourceGraphic" in2="effect1_dropShadow_20264_61684" result="shape"></feBlend></filter><linearGradient id="paint0_linear_20264_61684" x1="10.9884" y1="1.88428" x2="10.9884" y2="20.1231" gradientUnits="userSpaceOnUse"><stop stop-color="white"></stop><stop offset="1" stop-color="white" stop-opacity="0"></stop></linearGradient><linearGradient id="paint0_linear_20264_61684" x1="10.9884" y1="1.88428" x2="10.9884" y2="20.1231" gradientUnits="userSpaceOnUse"><stop stop-color="white"></stop><stop offset="1" stop-color="white" stop-opacity="0"></stop></linearGradient></defs></svg>