<svg xmlns:xlink="http://www.w3.org/1999/xlink" xmlns="http://www.w3.org/2000/svg" width="22" height="12" viewBox="0 0 22 12" fill="none"><path d="M20.8865 0.0652211H21.0822L21.0814 0.0644184C21.1858 0.0644184 21.27 0.148662 21.27 0.252963V4.21078C21.27 4.31508 21.1858 4.39932 21.0814 4.39932H20.9154C20.0834 4.39932 19.4094 5.07326 19.4094 5.90526V10.0949C19.4094 11.1122 18.5598 11.9379 17.5681 11.9379C16.9183 11.9379 16.3734 11.6378 16.0196 11.1323L11.7642 5.05561C11.4762 4.64482 11.006 4.40012 10.5046 4.40012H10.5021C9.67019 4.40012 8.99622 5.07406 8.99622 5.90606V10.0941C8.99622 11.2503 7.91149 12.1577 6.73289 11.8897C6.26194 11.783 5.85355 11.4893 5.57676 11.0938L0.891248 4.40172C0.786142 4.2509 0.72998 4.07277 0.72998 3.88905V0.25537C0.72998 0.0676278 0.97148 -0.0077886 1.07899 0.145453L5.84072 6.94586C6.12875 7.35665 6.61335 7.60135 7.10116 7.60135C7.92513 7.60135 8.6071 6.92741 8.6071 6.09541V1.90493C8.6071 0.886791 9.48001 0.0620117 10.4501 0.0620117C11.0718 0.0620117 11.6462 0.36288 11.9992 0.867536L16.2548 6.94506C16.5428 7.35584 17.0282 7.60055 17.5144 7.60055C18.3328 7.60055 19.0204 6.92661 19.0204 6.0946V1.92819C19.0204 0.898023 19.8564 0.0636171 20.8865 0.0652211Z" fill="#101828"></path></svg>